HIERARCHY
ROOT mixamorig:Hips
{
	OFFSET 0.000000 103.991501 0.000000
	CHANNELS 6 Xposition Yposition Zposition Xrotation Yrotation Zrotation
	JOINT mixamorig:Spine
	{
		OFFSET 0.000000 10.181602 0.131500
		CHANNELS 3 Xrotation Yrotation Zrotation
		JOINT mixamorig:Spine1
		{
			OFFSET 0.000000 10.083504 -1.000800
			CHANNELS 3 Xrotation Yrotation Zrotation
			JOINT mixamorig:Spine2
			{
				OFFSET 0.000000 9.100006 -1.373400
				CHANNELS 3 Xrotation Yrotation Zrotation
				JOINT mixamorig:Neck
				{
					OFFSET 0.000000 16.671707 -2.516200
					CHANNELS 3 Xrotation Yrotation Zrotation
					JOINT mixamorig:Head
					{
						OFFSET 0.000000 9.617905 1.685000
						CHANNELS 3 Xrotation Yrotation Zrotation
						JOINT mixamorig:HeadTop_End
						{
							OFFSET 0.000000 17.815201 2.585000
							CHANNELS 3 Xrotation Yrotation Zrotation
							End Site
							{
								OFFSET 0.000000 13.794495 0.000000
							}
						}
						JOINT mixamorig:LeftEye
						{
							OFFSET 3.067600 6.409500 9.283600
							CHANNELS 3 Xrotation Yrotation Zrotation
							End Site
							{
								OFFSET 0.000000 13.794495 0.000000
							}
						}
						JOINT mixamorig:RightEye
						{
							OFFSET -3.067600 6.409500 9.283500
							CHANNELS 3 Xrotation Yrotation Zrotation
							End Site
							{
								OFFSET 0.000000 13.794495 0.000000
							}
						}
					}
				}
				JOINT mixamorig:LeftShoulder
				{
					OFFSET 4.570400 10.945999 -2.628000
					CHANNELS 3 Xrotation Yrotation Zrotation
					JOINT mixamorig:LeftArm
					{
						OFFSET 10.592400 -0.524597 -2.232100
						CHANNELS 3 Xrotation Yrotation Zrotation
						JOINT mixamorig:LeftForeArm
						{
							OFFSET 27.841499 0.000000 0.000000
							CHANNELS 3 Xrotation Yrotation Zrotation
							JOINT mixamorig:LeftHand
							{
								OFFSET 28.328800 0.000000 0.000000
								CHANNELS 3 Xrotation Yrotation Zrotation
								JOINT mixamorig:LeftHandThumb1
								{
									OFFSET 2.466103 -1.576218 2.681689
									CHANNELS 3 Xrotation Yrotation Zrotation
									JOINT mixamorig:LeftHandThumb2
									{
										OFFSET 3.229782 -1.864716 1.864716
										CHANNELS 3 Xrotation Yrotation Zrotation
										JOINT mixamorig:LeftHandThumb3
										{
											OFFSET 2.652611 -1.531494 1.531488
											CHANNELS 3 Xrotation Yrotation Zrotation
											JOINT mixamorig:LeftHandThumb4
											{
												OFFSET 1.954605 -1.128494 1.128493
												CHANNELS 3 Xrotation Yrotation Zrotation
												End Site
												{
													OFFSET -0.000404 2.523392 0.000683
												}
											}
										}
									}
								}
								JOINT mixamorig:LeftHandIndex1
								{
									OFFSET 9.109299 -0.518112 2.259867
									CHANNELS 3 Xrotation Yrotation Zrotation
									JOINT mixamorig:LeftHandIndex2
									{
										OFFSET 3.676399 0.000000 0.000000
										CHANNELS 3 Xrotation Yrotation Zrotation
										JOINT mixamorig:LeftHandIndex3
										{
											OFFSET 2.883102 0.000000 0.000000
											CHANNELS 3 Xrotation Yrotation Zrotation
											JOINT mixamorig:LeftHandIndex4
											{
												OFFSET 2.392700 0.000000 0.000000
												CHANNELS 3 Xrotation Yrotation Zrotation
												End Site
												{
													OFFSET 0.000000 2.392700 0.001080
												}
											}
										}
									}
								}
								JOINT mixamorig:LeftHandMiddle1
								{
									OFFSET 9.533401 0.000000 0.000000
									CHANNELS 3 Xrotation Yrotation Zrotation
									JOINT mixamorig:LeftHandMiddle2
									{
										OFFSET 3.698196 0.000000 0.000000
										CHANNELS 3 Xrotation Yrotation Zrotation
										JOINT mixamorig:LeftHandMiddle3
										{
											OFFSET 2.950897 0.000000 0.000000
											CHANNELS 3 Xrotation Yrotation Zrotation
											JOINT mixamorig:LeftHandMiddle4
											{
												OFFSET 2.833900 0.000000 0.000000
												CHANNELS 3 Xrotation Yrotation Zrotation
												End Site
												{
													OFFSET 0.000000 2.833893 0.001278
												}
											}
										}
									}
								}
								JOINT mixamorig:LeftHandRing1
								{
									OFFSET 9.104500 -0.043060 -1.865119
									CHANNELS 3 Xrotation Yrotation Zrotation
									JOINT mixamorig:LeftHandRing2
									{
										OFFSET 3.153999 0.000000 0.000000
										CHANNELS 3 Xrotation Yrotation Zrotation
										JOINT mixamorig:LeftHandRing3
										{
											OFFSET 2.937698 0.000000 0.000000
											CHANNELS 3 Xrotation Yrotation Zrotation
											JOINT mixamorig:LeftHandRing4
											{
												OFFSET 2.647499 0.000000 0.000000
												CHANNELS 3 Xrotation Yrotation Zrotation
												End Site
												{
													OFFSET 0.000000 2.647507 0.001195
												}
											}
										}
									}
								}
								JOINT mixamorig:LeftHandPinky1
								{
									OFFSET 8.077797 -0.486984 -3.806321
									CHANNELS 3 Xrotation Yrotation Zrotation
									JOINT mixamorig:LeftHandPinky2
									{
										OFFSET 3.599998 0.000000 0.000000
										CHANNELS 3 Xrotation Yrotation Zrotation
										JOINT mixamorig:LeftHandPinky3
										{
											OFFSET 2.114197 0.000000 0.000000
											CHANNELS 3 Xrotation Yrotation Zrotation
											JOINT mixamorig:LeftHandPinky4
											{
												OFFSET 1.975700 0.000000 0.000000
												CHANNELS 3 Xrotation Yrotation Zrotation
												End Site
												{
													OFFSET 0.000000 1.975693 0.000892
												}
											}
										}
									}
								}
							}
						}
					}
				}
				JOINT mixamorig:RightShoulder
				{
					OFFSET -4.570000 10.946198 -2.628000
					CHANNELS 3 Xrotation Yrotation Zrotation
					JOINT mixamorig:RightArm
					{
						OFFSET -10.592800 -0.524796 -2.232100
						CHANNELS 3 Xrotation Yrotation Zrotation
						JOINT mixamorig:RightForeArm
						{
							OFFSET -27.841499 0.000000 0.000000
							CHANNELS 3 Xrotation Yrotation Zrotation
							JOINT mixamorig:RightHand
							{
								OFFSET -28.328800 0.000000 0.000000
								CHANNELS 3 Xrotation Yrotation Zrotation
								JOINT mixamorig:RightHandPinky1
								{
									OFFSET -8.076698 -0.486725 -3.806227
									CHANNELS 3 Xrotation Yrotation Zrotation
									JOINT mixamorig:RightHandPinky2
									{
										OFFSET -3.599998 0.000000 0.000000
										CHANNELS 3 Xrotation Yrotation Zrotation
										JOINT mixamorig:RightHandPinky3
										{
											OFFSET -2.114197 0.000000 0.000000
											CHANNELS 3 Xrotation Yrotation Zrotation
											JOINT mixamorig:RightHandPinky4
											{
												OFFSET -1.975700 0.000000 0.000000
												CHANNELS 3 Xrotation Yrotation Zrotation
												End Site
												{
													OFFSET 0.000000 1.975693 0.000919
												}
											}
										}
									}
								}
								JOINT mixamorig:RightHandRing1
								{
									OFFSET -9.103600 -0.043030 -1.865120
									CHANNELS 3 Xrotation Yrotation Zrotation
									JOINT mixamorig:RightHandRing2
									{
										OFFSET -3.153999 0.000000 0.000000
										CHANNELS 3 Xrotation Yrotation Zrotation
										JOINT mixamorig:RightHandRing3
										{
											OFFSET -2.937698 0.000000 0.000000
											CHANNELS 3 Xrotation Yrotation Zrotation
											JOINT mixamorig:RightHandRing4
											{
												OFFSET -2.647499 0.000000 0.000000
												CHANNELS 3 Xrotation Yrotation Zrotation
												End Site
												{
													OFFSET 0.000000 2.647507 0.001231
												}
											}
										}
									}
								}
								JOINT mixamorig:RightHandMiddle1
								{
									OFFSET -9.532501 0.000000 0.000000
									CHANNELS 3 Xrotation Yrotation Zrotation
									JOINT mixamorig:RightHandMiddle2
									{
										OFFSET -3.698196 0.000000 0.000000
										CHANNELS 3 Xrotation Yrotation Zrotation
										JOINT mixamorig:RightHandMiddle3
										{
											OFFSET -2.950897 0.000000 0.000000
											CHANNELS 3 Xrotation Yrotation Zrotation
											JOINT mixamorig:RightHandMiddle4
											{
												OFFSET -2.833900 0.000000 0.000000
												CHANNELS 3 Xrotation Yrotation Zrotation
												End Site
												{
													OFFSET 0.000000 2.833893 0.001318
												}
											}
										}
									}
								}
								JOINT mixamorig:RightHandIndex1
								{
									OFFSET -9.108299 -0.517853 2.259859
									CHANNELS 3 Xrotation Yrotation Zrotation
									JOINT mixamorig:RightHandIndex2
									{
										OFFSET -3.676399 0.000000 0.000000
										CHANNELS 3 Xrotation Yrotation Zrotation
										JOINT mixamorig:RightHandIndex3
										{
											OFFSET -2.883102 0.000000 0.000000
											CHANNELS 3 Xrotation Yrotation Zrotation
											JOINT mixamorig:RightHandIndex4
											{
												OFFSET -2.392700 0.000000 0.000000
												CHANNELS 3 Xrotation Yrotation Zrotation
												End Site
												{
													OFFSET 0.000000 2.392700 0.001113
												}
											}
										}
									}
								}
								JOINT mixamorig:RightHandThumb1
								{
									OFFSET -2.464798 -1.573944 2.681868
									CHANNELS 3 Xrotation Yrotation Zrotation
									JOINT mixamorig:RightHandThumb2
									{
										OFFSET -3.229782 -1.864716 1.864716
										CHANNELS 3 Xrotation Yrotation Zrotation
										JOINT mixamorig:RightHandThumb3
										{
											OFFSET -2.652542 -1.531448 1.531448
											CHANNELS 3 Xrotation Yrotation Zrotation
											JOINT mixamorig:RightHandThumb4
											{
												OFFSET -1.954605 -1.128494 1.128493
												CHANNELS 3 Xrotation Yrotation Zrotation
												End Site
												{
													OFFSET 0.000412 2.523392 0.000704
												}
											}
										}
									}
								}
							}
						}
					}
				}
			}
		}
	}
	JOINT mixamorig:LeftUpLeg
	{
		OFFSET 8.207800 -6.751701 -1.599600
		CHANNELS 3 Xrotation Yrotation Zrotation
		JOINT mixamorig:LeftLeg
		{
			OFFSET 0.000000 -44.370499 0.284600
			CHANNELS 3 Xrotation Yrotation Zrotation
			JOINT mixamorig:LeftFoot
			{
				OFFSET 0.000000 -44.427898 -2.982200
				CHANNELS 3 Xrotation Yrotation Zrotation
				JOINT mixamorig:LeftToeBase
				{
					OFFSET 0.000000 -8.728700 10.710600
					CHANNELS 3 Xrotation Yrotation Zrotation
					JOINT mixamorig:LeftToe_End
					{
						OFFSET 0.000000 -0.000700 9.278099
						CHANNELS 3 Xrotation Yrotation Zrotation
						End Site
						{
							OFFSET 0.000000 9.278100 0.000000
						}
					}
				}
			}
		}
	}
	JOINT mixamorig:RightUpLeg
	{
		OFFSET -8.207800 -6.751701 -1.599600
		CHANNELS 3 Xrotation Yrotation Zrotation
		JOINT mixamorig:RightLeg
		{
			OFFSET 0.000000 -44.370499 0.286200
			CHANNELS 3 Xrotation Yrotation Zrotation
			JOINT mixamorig:RightFoot
			{
				OFFSET 0.000000 -44.427700 -2.983800
				CHANNELS 3 Xrotation Yrotation Zrotation
				JOINT mixamorig:RightToeBase
				{
					OFFSET 0.000000 -8.728700 10.710600
					CHANNELS 3 Xrotation Yrotation Zrotation
					JOINT mixamorig:RightToe_End
					{
						OFFSET 0.000000 -0.000700 9.278100
						CHANNELS 3 Xrotation Yrotation Zrotation
						End Site
						{
							OFFSET 0.000000 9.278100 0.000000
						}
					}
				}
			}
		}
	}
}
MOTION
Frames: 5
Frame Time: 0.033333
4.572114 100.437523 92.089661 -0.469422 3.056716 1.057824 4.878875 -4.195919 -1.627560 2.009748 -3.092540 0.690548 1.981062 -3.047173 0.793204 0.507638 2.709513 -1.487270 -2.038703 6.715039 -1.503537 0.000000 0.000000 0.000000 0.000000 0.000000 0.000000 0.000000 0.000000 0.000000 0.333585 -8.765569 -15.146361 1.984650 -22.669878 -51.959961 0.000016 -29.431340 0.000004 4.475869 4.304893 -11.326030 5.264570 3.579096 10.848973 3.891058 12.316633 5.906876 2.033150 -6.709416 21.492310 -0.000003 0.000002 0.000002 -1.602170 -1.891448 -20.812850 0.200369 1.520581 -15.013051 0.200379 1.520589 -15.013056 -0.000001 0.000001 0.000001 0.488271 4.642252 -29.115898 0.125430 1.207047 -11.865065 0.170818 1.405787 -13.855543 0.000000 0.000002 0.000001 1.824783 6.924503 -30.638477 0.331483 1.944459 -19.347523 0.402296 2.135327 -21.336519 -0.000001 0.000002 -0.000001 1.381954 6.171117 -34.917693 0.274582 1.774221 -17.594152 0.274595 1.774224 -17.594132 -0.000001 0.000003 -0.000001 0.500998 5.515633 14.484210 10.229769 19.312425 54.499145 0.000002 10.824691 0.000002 6.538365 11.283174 7.937026 0.686771 -4.703055 27.105321 0.571321 -2.236873 28.652183 0.179626 -1.282255 15.948246 0.000001 -0.000003 -0.000001 0.006815 -3.091679 22.107313 1.515756 -3.439861 47.550752 0.379342 -1.842750 23.262475 -0.000000 -0.000001 0.000000 -0.842506 -0.483199 19.159645 0.852036 -2.687170 35.179992 0.292423 -1.625834 20.391239 0.000000 0.000002 0.000000 -1.741792 3.783467 17.243315 0.397152 -1.883614 23.810179 0.078859 -0.854310 10.547492 0.000001 -0.000001 -0.000004 12.604589 -3.092095 -3.819375 5.075800 -21.668382 -8.495679 -16.107259 -1.724220 -12.121662 -0.000004 0.000000 0.000001 -11.442568 7.172372 -3.278010 25.938625 -8.006831 3.560320 -13.251917 -0.320632 2.269204 -6.819952 -0.000000 -0.000000 -0.000000 -0.000000 0.000000 -32.917181 -8.217576 -8.684184 64.347472 -2.263662 -0.319376 -5.923677 -0.715510 7.388364 -8.397089 -0.000001 -0.000000 0.000000 -0.000001 0.000000 
4.310023 101.442673 97.419968 -0.542409 3.867468 1.521025 4.893822 -5.385459 -2.008728 2.101001 -4.140609 1.052483 2.071104 -4.096144 1.181894 0.697499 3.211630 -1.044315 -1.244167 8.241301 -2.105789 -0.000000 0.000000 -0.000000 -0.000000 0.000000 -0.000000 -0.000000 0.000000 -0.000000 0.331354 -9.158933 -14.813912 0.344629 -25.245510 -50.873021 0.000021 -34.370475 0.000007 4.577245 4.165142 -10.678674 5.264572 3.579094 10.848980 2.811037 11.080439 5.860571 2.032733 -5.856805 21.229078 -0.000001 0.000001 -0.000005 -1.850111 -2.367452 -20.745887 0.200812 1.522225 -15.029652 0.200823 1.522229 -15.029661 0.000001 0.000003 0.000002 0.410569 4.501350 -29.036210 0.125566 1.207682 -11.871348 0.170971 1.406407 -13.861783 0.000001 0.000003 0.000002 1.778766 6.837226 -30.799659 0.333497 1.950179 -19.406803 0.404520 2.141014 -21.396216 0.000002 -0.000003 0.000000 1.477547 6.337411 -34.758068 0.277156 1.782332 -17.677318 0.277174 1.782337 -17.677295 -0.000002 0.000000 -0.000002 0.510891 5.177945 14.756728 11.350322 16.672125 56.005348 0.000004 9.559065 0.000004 5.722432 10.385330 10.532357 0.817310 -4.915227 26.886825 0.570690 -2.235713 28.635896 0.179353 -1.281286 15.935846 -0.000001 0.000001 -0.000000 0.020863 -3.111378 21.802188 1.516576 -3.440604 47.564263 0.379779 -1.843766 23.276060 -0.000000 -0.000000 0.000000 -0.859145 -0.405856 19.006637 0.850845 -2.685472 35.154427 0.291698 -1.623879 20.365551 0.000000 0.000002 0.000001 -1.637345 3.788040 16.663778 0.398637 -1.886980 23.855375 0.079538 -0.857927 10.592652 -0.000000 0.000001 0.000001 12.604592 -3.092094 -3.819374 4.740713 -21.774756 -8.763450 -16.099507 -1.763702 -12.120134 -0.000003 0.000000 -0.000001 -5.608883 7.369819 -4.416645 21.935873 -9.174373 4.898468 -14.783173 -0.236874 1.388149 -6.624126 -0.000000 0.000000 0.000000 -0.000000 -0.000000 -39.329524 -7.530804 -9.039364 61.926757 -1.008460 0.855917 -10.513834 -1.016827 7.273025 -6.918154 -0.000002 0.000001 -0.000000 0.000000 -0.000000 
4.012711 101.352097 102.917503 0.019177 4.624527 1.707232 4.903489 -6.173033 -2.352639 2.191145 -5.097266 1.724548 2.118448 -5.044771 1.873393 0.554336 3.742261 -1.160340 -1.510703 9.285996 -2.226921 -0.000000 0.000000 0.000000 -0.000000 0.000000 0.000000 -0.000000 0.000000 0.000000 0.342167 -9.422207 -14.380810 0.477195 -27.783784 -48.316000 -0.000009 -41.666333 -0.000014 4.061318 4.066544 -7.314740 5.264574 3.579095 10.848977 2.112017 10.665511 5.849565 2.040063 -5.486327 21.164253 -0.000003 -0.000002 -0.000000 -1.868551 -2.354972 -20.912590 0.200497 1.521029 -15.017534 0.200478 1.521024 -15.017537 -0.000000 -0.000002 -0.000001 0.332021 4.356861 -28.947465 0.124882 1.204469 -11.839246 0.170183 1.403200 -13.829584 0.000002 -0.000001 -0.000002 1.735071 6.773787 -30.635570 0.334939 1.954255 -19.449037 0.406104 2.145040 -21.438642 -0.000001 0.000003 0.000003 1.285061 6.013815 -34.500512 0.276214 1.779333 -17.646412 0.276207 1.779323 -17.646410 0.000000 0.000002 0.000001 0.533112 4.677704 14.579469 13.370608 14.781533 56.799396 -0.000000 10.248459 0.000003 5.756497 8.126441 13.162314 0.687027 -4.664838 27.143532 0.569073 -2.232745 28.594590 0.178334 -1.277735 15.890404 -0.000000 0.000002 0.000002 -0.023477 -3.016880 22.125343 1.513672 -3.437957 47.515898 0.378218 -1.840130 23.227544 0.000000 -0.000001 -0.000000 -0.867379 -0.438695 19.301886 0.852329 -2.687571 35.186034 0.292592 -1.626285 20.397163 0.000001 0.000001 0.000001 -1.717272 3.748906 17.244652 0.396770 -1.882759 23.798703 0.078691 -0.853391 10.536011 -0.000001 0.000001 0.000001 12.604590 -3.092095 -3.819375 4.985535 -21.586413 -8.587354 -16.104872 -1.736316 -12.121197 -0.000000 0.000002 0.000001 -0.524935 8.078339 -4.400842 17.639565 -8.079193 5.415992 -16.303545 -3.210761 -0.073746 -6.481230 -0.000001 -0.000001 0.000000 0.000000 0.000000 -42.950709 -6.602879 -8.405683 51.581022 -2.184274 0.026522 -9.906298 -0.930428 6.694230 -6.492454 0.000004 0.000002 0.000000 0.000000 0.000000 
3.613318 100.869759 108.555862 0.742153 5.673900 2.559856 4.438456 -7.175523 -3.860714 2.483909 -5.919613 2.663705 2.320817 -5.844421 2.845738 0.393035 4.279919 -1.715036 -2.441614 10.039115 -2.061123 -0.000001 -0.000000 0.000000 -0.000001 -0.000000 0.000000 -0.000001 -0.000000 0.000000 0.345594 -9.797391 -14.029732 0.599022 -29.903210 -45.199730 -0.000001 -47.810549 0.000006 4.145373 3.609692 -2.948198 5.264573 3.579100 10.848973 1.350968 10.037103 5.741189 2.050515 -5.037767 21.067794 -0.000001 -0.000001 0.000001 -1.808372 -2.360131 -20.516847 0.200630 1.521515 -15.022357 0.200617 1.521498 -15.022337 0.000000 0.000000 -0.000001 0.263084 4.214103 -28.485874 0.124615 1.203083 -11.825630 0.169833 1.401845 -13.815932 0.000000 -0.000002 0.000003 1.676674 6.695246 -30.278553 0.336312 1.958156 -19.489340 0.407630 2.148919 -21.479133 0.000000 -0.000000 0.000001 1.028037 5.581281 -34.123290 0.275961 1.778495 -17.638105 0.275940 1.778515 -17.638125 0.000000 0.000001 -0.000001 0.552677 4.181622 14.285665 14.851857 13.058386 57.687935 -0.000004 10.817946 -0.000007 5.608343 5.337272 15.339669 0.582342 -4.472318 27.278949 0.559661 -2.215407 28.352014 0.172897 -1.258484 15.644728 -0.000000 -0.000001 -0.000000 -0.050774 -2.972112 22.540389 1.510103 -3.434696 47.456322 0.376306 -1.835679 23.167937 -0.000001 0.000001 -0.000001 -0.857232 -0.502074 19.482239 0.852657 -2.688032 35.193100 0.292799 -1.626841 20.404352 -0.000000 -0.000000 -0.000000 -1.815388 3.667228 18.082895 0.400054 -1.890187 23.898470 0.080180 -0.861378 10.635717 -0.000000 0.000000 0.000002 12.604587 -3.092094 -3.819374 5.603367 -21.017243 -8.242668 -16.111407 -1.703132 -12.122500 0.000001 0.000002 0.000001 4.563174 9.689512 -4.511240 13.076105 -6.102879 5.261985 -17.250548 -8.209864 -1.803597 -6.609429 0.000000 -0.000000 0.000000 0.000000 0.000000 -43.215508 -5.079251 -7.377544 36.447177 -3.897162 -2.620104 -7.525083 -0.769957 6.744365 -6.493097 -0.000005 0.000002 -0.000002 -0.000000 -0.000000 
3.216942 99.820038 114.300842 1.531436 6.784201 3.288579 3.650024 -7.767621 -5.031927 2.728617 -6.761120 3.300674 2.512466 -6.664567 3.516652 0.282992 4.772499 -2.249611 -3.418616 10.554859 -1.907629 -0.000000 -0.000000 0.000000 -0.000000 -0.000000 0.000000 -0.000000 -0.000000 0.000000 0.317227 -10.497393 -14.035958 1.354040 -31.469130 -41.195924 -0.000029 -53.271630 -0.000039 3.134354 3.969580 3.518645 5.264574 3.579097 10.848974 0.143814 9.068784 5.769530 2.069735 -4.367275 20.953924 0.000000 0.000000 -0.000000 -1.777848 -2.627052 -19.433889 0.199644 1.517795 -14.984960 0.199640 1.517807 -14.984972 -0.000000 0.000001 0.000000 0.179284 4.019633 -27.602043 0.124120 1.200749 -11.802315 0.169277 1.399532 -13.792554 -0.000000 0.000001 -0.000000 1.590353 6.590592 -29.470115 0.336549 1.958736 -19.495482 0.407855 2.149513 -21.485439 0.000001 0.000000 -0.000000 0.866099 5.340525 -33.608072 0.274489 1.773847 -17.590338 0.274450 1.773835 -17.590223 -0.000001 0.000001 0.000002 0.573793 3.519450 13.963959 15.974580 11.536144 58.533212 -0.000002 11.054717 0.000005 5.278784 2.762056 17.284347 0.486872 -4.317769 27.395600 0.556525 -2.209588 28.270699 0.171056 -1.251885 15.560604 0.000001 0.000003 0.000001 -0.053128 -2.980916 22.807603 1.508346 -3.433068 47.426928 0.375366 -1.833475 23.138569 0.000001 -0.000001 0.000001 -0.818050 -0.637438 19.609915 0.854506 -2.690654 35.232445 0.293924 -1.629862 20.443992 -0.000000 0.000001 0.000001 -1.884492 3.571243 18.820610 0.400112 -1.890302 23.900101 0.080203 -0.861510 10.637327 0.000000 -0.000001 0.000001 12.604587 -3.092094 -3.819374 6.170641 -20.572535 -7.932728 -16.114093 -1.689391 -12.123021 0.000001 -0.000000 -0.000002 8.279491 11.027215 -4.338565 11.186163 -3.114059 5.221942 -19.567947 -13.620021 -3.965235 -7.136690 0.000001 0.000000 -0.000000 -0.000000 0.000000 -40.591780 -4.926257 -7.001744 20.803836 -4.037152 -4.611269 -7.543788 -0.767076 6.871129 -7.084475 -0.000001 0.000001 -0.000002 -0.000000 0.000000 
